<svg width="206" height="206" viewBox="0 0 206 206" fill="none" xmlns="http://www.w3.org/2000/svg">
<rect width="206" height="206" rx="20" fill="white"/>
<path d="M67.8409 91.2273C67.5455 90.0227 67.0795 88.9659 66.4432 88.0568C65.8068 87.125 65.0114 86.3409 64.0568 85.7045C63.125 85.0455 62.0341 84.5568 60.7841 84.2386C59.5568 83.8977 58.2045 83.7273 56.7273 83.7273C53.5455 83.7273 50.8295 84.4886 48.5795 86.0114C46.3523 87.5341 44.6477 89.7273 43.4659 92.5909C42.3068 95.4545 41.7273 98.9091 41.7273 102.955C41.7273 107.045 42.2841 110.545 43.3977 113.455C44.5114 116.364 46.1705 118.591 48.375 120.136C50.5795 121.682 53.3182 122.455 56.5909 122.455C59.4773 122.455 61.875 122.034 63.7841 121.193C65.7159 120.352 67.1591 119.159 68.1136 117.614C69.0682 116.068 69.5455 114.25 69.5455 112.159L72.8182 112.5H56.8636V99H87.8182V108.682C87.8182 115.045 86.4659 120.489 83.7614 125.011C81.0795 129.511 77.375 132.966 72.6477 135.375C67.9432 137.761 62.5455 138.955 56.4545 138.955C49.6591 138.955 43.6932 137.511 38.5568 134.625C33.4205 131.739 29.4091 127.625 26.5227 122.284C23.6591 116.943 22.2273 110.591 22.2273 103.227C22.2273 97.4545 23.1023 92.3409 24.8523 87.8864C26.625 83.4318 29.0795 79.6705 32.2159 76.6023C35.3523 73.5114 38.9773 71.1818 43.0909 69.6136C47.2045 68.0227 51.6136 67.2273 56.3182 67.2273C60.4545 67.2273 64.2955 67.8182 67.8409 69C71.4091 70.1591 74.5568 71.8182 77.2841 73.9773C80.0341 76.1136 82.25 78.6477 83.9318 81.5795C85.6136 84.5114 86.6364 87.7273 87 91.2273H67.8409ZM123.52 138H96.6562V68.1818H123.247C130.429 68.1818 136.634 69.5795 141.861 72.375C147.111 75.1477 151.156 79.1477 153.997 84.375C156.861 89.5795 158.293 95.8182 158.293 103.091C158.293 110.364 156.872 116.614 154.031 121.841C151.19 127.045 147.168 131.045 141.963 133.841C136.759 136.614 130.611 138 123.52 138ZM115.611 121.909H122.838C126.293 121.909 129.236 121.352 131.668 120.239C134.122 119.125 135.986 117.205 137.259 114.477C138.554 111.75 139.202 107.955 139.202 103.091C139.202 98.2273 138.543 94.4318 137.224 91.7045C135.929 88.9773 134.02 87.0568 131.497 85.9432C128.997 84.8295 125.929 84.2727 122.293 84.2727H115.611V121.909ZM173.156 139.091C170.52 139.091 168.259 138.17 166.372 136.33C164.509 134.466 163.588 132.205 163.611 129.545C163.588 126.955 164.509 124.739 166.372 122.898C168.259 121.057 170.52 120.136 173.156 120.136C175.656 120.136 177.861 121.057 179.77 122.898C181.702 124.739 182.679 126.955 182.702 129.545C182.679 131.318 182.213 132.932 181.304 134.386C180.418 135.818 179.259 136.966 177.827 137.83C176.395 138.67 174.838 139.091 173.156 139.091Z" fill="#FC0202"/>
</svg>
